<svg xmlns="http://www.w3.org/2000/svg" width="27.443" height="27.309" viewBox="0 0 27.443 27.309">
  <g id="Icon_ionic-ios-apps" data-name="Icon ionic-ios-apps" transform="translate(-3.993 -3.977)">
    <path id="Path_9" data-name="Path 9" d="M30.028,9.532,19.742,4.872a5.6,5.6,0,0,0-4.055,0L5.409,9.532c-1.211.548-1.211,1.442,0,1.991L15.6,16.142a5.887,5.887,0,0,0,4.241,0l10.189-4.619C31.239,10.976,31.239,10.08,30.028,9.532Z" transform="translate(0 0)" fill="#b5c8ff" stroke="#5d5d5d" stroke-width="1"/>
    <g id="Group_1" data-name="Group 1" transform="translate(4.493 15.566)">
      <path id="Path_10" data-name="Path 10" d="M15.6,26.293,8.728,23.179a1.123,1.123,0,0,0-.915,0l-2.4,1.088c-1.211.547-1.211,1.442,0,1.991L15.6,30.877a5.887,5.887,0,0,0,4.241,0l10.189-4.619c1.211-.548,1.211-1.442,0-1.991l-2.4-1.088a1.123,1.123,0,0,0-.915,0l-6.871,3.113A5.887,5.887,0,0,1,15.6,26.293Z" transform="translate(-4.494 -16.068)" fill="none" stroke="#5d5d5d" stroke-width="1"/>
      <path id="Path_11" data-name="Path 11" d="M30.028,16.958l-2.183-.986a1.107,1.107,0,0,0-.909,0L19.5,19.319a6.114,6.114,0,0,1-3.573,0L8.493,15.972a1.107,1.107,0,0,0-.909,0L5.4,16.958c-1.211.547-1.211,1.442,0,1.991l10.189,4.619a5.887,5.887,0,0,0,4.241,0l10.189-4.619C31.239,18.4,31.239,17.505,30.028,16.958Z" transform="translate(-4.493 -15.875)" fill="none" stroke="#5d5d5d" stroke-width="1"/>
    </g>
  </g>
</svg>
